<svg xmlns="http://www.w3.org/2000/svg" id="canvas" viewBox="319.950 303.576 1424.080 331.413"><path d="M 333.70,430.31 C 335.87 429.87, 336.80 427.69, 340.03 424.26 C 343.25 420.82, 345.11 418.27, 349.82 413.15 C 354.53 408.04, 357.67 404.59, 363.57 398.68 C 369.47 392.78, 372.86 389.62, 379.34 383.64 C 385.81 377.67, 389.37 374.44, 395.96 368.81 C 402.55 363.18, 406.05 360.26, 412.28 355.50 C 418.52 350.75, 421.69 348.39, 427.14 345.02 C 432.58 341.66, 435.19 340.26, 439.51 338.67 C 443.83 337.07, 445.67 336.96, 448.73 337.06 C 451.80 337.16, 452.49 337.57, 454.85 339.15 C 457.21 340.73, 458.24 341.66, 460.54 344.96 C 462.83 348.26, 464.22 350.49, 466.32 355.66 C 468.42 360.84, 469.53 364.07, 471.04 370.85 C 472.55 377.63, 473.22 381.56, 473.88 389.56 C 474.54 397.57, 474.66 402.03, 474.33 410.86 C 474.00 419.69, 473.58 424.46, 472.22 433.72 C 470.86 442.97, 469.89 447.91, 467.52 457.13 C 465.16 466.36, 463.69 471.13, 460.39 479.85 C 457.10 488.57, 455.19 492.91, 451.05 500.75 C 446.91 508.58, 444.56 512.38, 439.70 519.03 C 434.83 525.68, 432.22 528.76, 426.73 534.00 C 421.24 539.23, 418.27 541.47, 412.23 545.20 C 406.19 548.94, 402.90 550.43, 396.51 552.68 C 390.13 554.93, 386.68 555.67, 380.30 556.47 C 373.92 557.27, 370.50 557.19, 364.61 556.69 C 358.72 556.19, 355.71 555.54, 350.84 553.98 C 345.98 552.42, 343.61 551.12, 340.29 548.88 C 336.98 546.64, 335.83 545.12, 334.26 542.76 C 332.68 540.40, 332.45 539.55, 332.42 537.09 C 332.39 534.62, 332.33 533.54, 334.10 530.44 C 335.88 527.34, 337.14 525.29, 341.29 521.58 C 345.44 517.86, 348.32 515.73, 354.86 511.85 C 361.40 507.97, 365.50 505.99, 373.99 502.19 C 382.47 498.39, 387.47 496.49, 397.29 492.87 C 407.11 489.24, 412.63 487.48, 423.09 484.05 C 433.55 480.62, 439.15 478.93, 449.58 475.71 C 460.01 472.50, 465.39 470.91, 475.23 467.98 C 485.08 465.06, 489.99 463.57, 498.81 461.08 C 507.62 458.58, 511.90 457.34, 519.31 455.52 C 526.72 453.70, 530.22 452.87, 535.87 451.98 C 541.53 451.08, 544.22 451.13, 547.58 451.05 C 550.93 450.96, 551.64 451.00, 552.66 451.56 C 553.67 452.13, 552.98 451.61, 552.64 453.88 C 552.29 456.15, 552.42 458.27, 550.94 462.91 C 549.45 467.55, 548.06 470.93, 545.22 477.06 C 542.37 483.20, 540.31 487.20, 536.71 493.59 C 533.12 499.99, 530.79 503.72, 527.24 509.04 C 523.68 514.37, 521.01 516.74, 518.94 520.22 C 516.86 523.70, 516.23 525.05, 516.84 526.42 C 517.46 527.79, 520.25 528.69, 522.00 527.08 C 523.75 525.46, 523.78 523.01, 525.60 518.35 C 527.43 513.68, 528.60 510.02, 531.13 503.77 C 533.66 497.53, 535.26 493.51, 538.27 487.12 C 541.28 480.73, 543.09 477.24, 546.20 471.82 C 549.30 466.39, 550.96 463.80, 553.79 459.99 C 556.61 456.18, 558.06 454.73, 560.32 452.78 C 562.57 450.82, 563.19 450.72, 565.06 450.22 C 566.94 449.73, 567.23 450.19, 569.70 450.32 C 572.18 450.45, 573.71 450.76, 577.44 450.89 C 581.17 451.02, 583.53 451.21, 588.35 450.96 C 593.18 450.72, 595.94 450.52, 601.54 449.66 C 607.15 448.80, 610.25 448.20, 616.36 446.67 C 622.47 445.14, 625.85 444.07, 632.09 442.01 C 638.34 439.95, 641.69 438.54, 647.58 436.36 C 653.47 434.18, 656.65 432.88, 661.53 431.10 C 666.42 429.32, 669.60 428.98, 672.03 427.45 C 674.45 425.91, 674.15 423.88, 673.65 423.43 C 673.14 422.97, 671.59 422.63, 669.51 425.17 C 667.43 427.72, 666.50 430.72, 663.25 436.16 C 659.99 441.60, 657.37 445.51, 653.22 452.37 C 649.07 459.23, 646.40 463.35, 642.50 470.44 C 638.59 477.54, 636.49 481.33, 633.71 487.83 C 630.94 494.34, 629.63 497.48, 628.64 502.96 C 627.65 508.44, 627.25 511.10, 628.75 515.23 C 630.24 519.36, 632.23 521.85, 636.11 523.63 C 640.00 525.40, 643.08 525.18, 648.19 524.10 C 653.31 523.03, 656.02 521.50, 661.69 518.26 C 667.36 515.01, 670.46 512.70, 676.54 507.89 C 682.61 503.07, 686.04 500.00, 692.06 494.16 C 698.07 488.33, 701.27 484.79, 706.61 478.70 C 711.96 472.62, 714.55 469.28, 718.78 463.73 C 723.01 458.19, 724.74 455.30, 727.77 450.97 C 730.79 446.63, 732.37 444.85, 733.92 442.07 C 735.47 439.29, 735.29 438.07, 735.50 437.06 C 735.72 436.05, 734.65 436.26, 734.98 437.01 C 735.32 437.77, 735.18 439.78, 737.18 440.84 C 739.19 441.89, 741.12 442.19, 744.99 442.29 C 748.87 442.39, 751.37 441.93, 756.54 441.33 C 761.72 440.73, 764.74 440.34, 770.88 439.29 C 777.03 438.23, 780.61 437.48, 787.26 436.07 C 793.90 434.65, 797.64 433.62, 804.11 432.20 C 810.58 430.77, 814.16 429.88, 819.62 428.96 C 825.08 428.04, 828.30 428.09, 831.41 427.60 C 834.53 427.12, 834.91 426.36, 835.19 426.52 C 835.46 426.67, 834.37 426.06, 832.79 428.39 C 831.21 430.72, 830.33 433.37, 827.28 438.16 C 824.23 442.95, 821.65 446.37, 817.54 452.34 C 813.44 458.31, 810.71 461.97, 806.75 467.99 C 802.78 474.01, 800.57 477.15, 797.71 482.43 C 794.85 487.71, 793.08 489.99, 792.44 494.39 C 791.80 498.79, 792.22 501.54, 794.51 504.43 C 796.80 507.33, 799.63 508.73, 803.90 508.86 C 808.18 508.98, 810.58 507.45, 815.88 505.04 C 821.19 502.62, 824.10 500.74, 830.42 496.78 C 836.73 492.83, 840.31 490.25, 847.45 485.27 C 854.59 480.29, 858.59 477.31, 866.13 471.88 C 873.67 466.45, 877.84 463.38, 885.16 458.14 C 892.48 452.90, 896.22 450.04, 902.73 445.70 C 909.23 441.36, 912.57 439.20, 917.68 436.44 C 922.80 433.68, 925.84 433.30, 928.32 431.90 C 930.80 430.51, 930.45 429.46, 930.10 429.48 C 929.76 429.49, 928.28 429.46, 926.58 431.99 C 924.89 434.52, 924.23 437.39, 921.63 442.12 C 919.03 446.86, 916.99 450.29, 913.60 455.66 C 910.21 461.04, 907.92 464.22, 904.69 468.99 C 901.45 473.75, 898.90 475.68, 897.43 479.49 C 895.97 483.30, 895.85 485.50, 897.38 488.04 C 898.90 490.57, 901.52 492.68, 905.06 492.17 C 908.59 491.66, 910.13 488.99, 915.04 485.48 C 919.95 481.97, 923.04 479.37, 929.59 474.62 C 936.14 469.86, 940.30 466.72, 947.79 461.70 C 955.29 456.68, 959.75 453.71, 967.05 449.52 C 974.35 445.32, 978.32 443.23, 984.30 440.74 C 990.28 438.24, 993.59 437.86, 996.96 437.02 C 1000.33 436.19, 1000.73 436.16, 1001.16 436.57 C 1001.58 436.97, 1000.17 436.78, 999.09 439.03 C 998.01 441.29, 997.53 443.71, 995.75 447.85 C 993.98 451.99, 992.31 454.90, 990.21 459.73 C 988.11 464.56, 986.45 467.27, 985.25 472.02 C 984.04 476.77, 982.86 479.61, 984.19 483.49 C 985.52 487.37, 987.86 490.00, 991.89 491.43 C 995.92 492.87, 998.60 492.05, 1004.34 490.66 C 1010.07 489.27, 1013.32 487.77, 1020.55 484.49 C 1027.79 481.21, 1032.03 478.82, 1040.52 474.24 C 1049.02 469.67, 1053.98 466.75, 1063.04 461.62 C 1072.11 456.49, 1077.19 453.50, 1085.84 448.58 C 1094.49 443.65, 1099.01 441.00, 1106.29 437.01 C 1113.57 433.01, 1117.12 431.26, 1122.23 428.61 C 1127.34 425.97, 1129.97 425.98, 1131.85 423.79 C 1133.74 421.59, 1133.10 419.43, 1131.65 417.62 C 1130.20 415.81, 1127.91 414.23, 1124.60 414.74 C 1121.29 415.25, 1119.31 417.38, 1115.10 420.16 C 1110.90 422.94, 1108.28 424.95, 1103.55 428.62 C 1098.83 432.29, 1096.04 434.50, 1091.46 438.52 C 1086.88 442.54, 1084.36 444.77, 1080.67 448.72 C 1076.97 452.66, 1074.87 454.39, 1073.00 458.23 C 1071.12 462.08, 1070.44 464.40, 1071.29 467.95 C 1072.14 471.51, 1073.91 474.26, 1077.23 476.01 C 1080.54 477.77, 1083.23 477.51, 1087.87 476.73 C 1092.51 475.94, 1095.04 474.57, 1100.42 472.10 C 1105.79 469.64, 1108.85 467.91, 1114.74 464.40 C 1120.63 460.90, 1124.01 458.59, 1129.89 454.59 C 1135.76 450.60, 1138.97 448.19, 1144.12 444.45 C 1149.28 440.71, 1152.49 438.74, 1155.67 435.90 C 1158.84 433.05, 1160.02 431.69, 1160.00 430.23 C 1159.98 428.76, 1157.31 427.19, 1155.55 428.56 C 1153.79 429.93, 1153.48 432.19, 1151.21 437.07 C 1148.94 441.95, 1147.41 445.67, 1144.19 452.96 C 1140.98 460.25, 1139.00 464.75, 1135.14 473.54 C 1131.27 482.32, 1129.14 487.20, 1124.85 496.90 C 1120.57 506.59, 1118.31 511.90, 1113.71 522.00 C 1109.10 532.11, 1106.74 537.52, 1101.84 547.42 C 1096.93 557.32, 1094.38 562.48, 1089.19 571.49 C 1083.99 580.51, 1081.21 585.02, 1075.86 592.51 C 1070.51 600.00, 1067.69 603.53, 1062.45 608.94 C 1057.21 614.35, 1054.39 616.56, 1049.68 619.56 C 1044.97 622.56, 1042.45 623.24, 1038.88 623.92 C 1035.32 624.61, 1034.10 624.08, 1031.86 622.98 C 1029.62 621.89, 1028.95 621.23, 1027.68 618.46 C 1026.42 615.68, 1025.52 613.77, 1025.56 609.10 C 1025.60 604.43, 1025.69 601.30, 1027.90 595.13 C 1030.12 588.95, 1031.86 585.21, 1036.63 578.24 C 1041.40 571.27, 1044.57 567.42, 1051.75 560.27 C 1058.93 553.12, 1063.34 549.39, 1072.55 542.49 C 1081.76 535.59, 1087.16 532.15, 1097.81 525.79 C 1108.46 519.42, 1114.49 516.36, 1125.81 510.65 C 1137.12 504.95, 1143.12 502.17, 1154.39 497.27 C 1165.66 492.37, 1171.52 490.15, 1182.13 486.14 C 1192.75 482.13, 1198.03 480.41, 1207.48 477.21 C 1216.92 474.02, 1221.86 472.52, 1229.37 470.17 C 1236.89 467.83, 1240.21 467.17, 1245.05 465.49 C 1249.90 463.81, 1252.16 463.31, 1253.59 461.79 C 1255.02 460.27, 1254.25 458.16, 1252.20 457.87 C 1250.15 457.59, 1248.22 458.81, 1243.35 460.35 C 1238.48 461.90, 1235.29 462.96, 1227.85 465.58 C 1220.41 468.20, 1215.55 470.00, 1206.15 473.45 C 1196.75 476.89, 1191.48 478.67, 1180.86 482.82 C 1170.24 486.96, 1164.35 489.20, 1153.03 494.17 C 1141.72 499.14, 1135.70 501.92, 1124.29 507.64 C 1112.89 513.36, 1106.82 516.42, 1096.02 522.77 C 1085.22 529.12, 1079.74 532.54, 1070.28 539.41 C 1060.82 546.29, 1056.29 549.98, 1048.71 557.14 C 1041.14 564.30, 1037.76 568.09, 1032.41 575.21 C 1027.05 582.33, 1024.88 586.04, 1021.95 592.75 C 1019.02 599.45, 1018.18 602.86, 1017.75 608.75 C 1017.32 614.64, 1017.66 617.80, 1019.79 622.19 C 1021.92 626.58, 1024.27 628.95, 1028.41 630.71 C 1032.55 632.47, 1035.58 632.26, 1040.50 631.01 C 1045.43 629.75, 1047.92 628.19, 1053.03 624.44 C 1058.14 620.70, 1060.78 618.18, 1066.05 612.29 C 1071.32 606.39, 1074.06 602.74, 1079.37 594.97 C 1084.69 587.20, 1087.44 582.62, 1092.61 573.45 C 1097.79 564.28, 1100.34 559.08, 1105.27 549.12 C 1110.20 539.16, 1112.57 533.73, 1117.26 523.63 C 1121.94 513.54, 1124.23 508.24, 1128.70 498.65 C 1133.18 489.05, 1135.36 484.20, 1139.64 475.65 C 1143.92 467.10, 1146.26 462.84, 1150.11 455.89 C 1153.95 448.95, 1156.20 445.83, 1158.86 440.94 C 1161.53 436.05, 1163.55 434.51, 1163.42 431.45 C 1163.29 428.38, 1160.84 426.05, 1158.21 425.59 C 1155.58 425.14, 1153.93 426.50, 1150.25 429.16 C 1146.58 431.82, 1144.63 434.90, 1139.82 438.89 C 1135.00 442.88, 1131.90 445.27, 1126.18 449.12 C 1120.47 452.96, 1117.04 455.13, 1111.25 458.12 C 1105.46 461.10, 1102.25 462.42, 1097.24 464.05 C 1092.23 465.68, 1089.50 465.80, 1086.21 466.27 C 1082.91 466.75, 1082.03 466.38, 1080.77 466.44 C 1079.50 466.50, 1079.73 467.34, 1079.89 466.59 C 1080.06 465.84, 1080.18 465.16, 1081.58 462.69 C 1082.99 460.21, 1083.89 457.86, 1086.90 454.22 C 1089.91 450.58, 1092.28 448.17, 1096.61 444.48 C 1100.95 440.79, 1103.78 438.75, 1108.56 435.78 C 1113.33 432.82, 1116.27 431.65, 1120.49 429.64 C 1124.70 427.64, 1127.42 427.76, 1129.63 425.76 C 1131.83 423.75, 1131.96 421.34, 1131.51 419.60 C 1131.06 417.86, 1129.88 416.35, 1127.38 417.06 C 1124.89 417.77, 1123.74 420.03, 1119.03 423.17 C 1114.32 426.31, 1110.91 428.44, 1103.83 432.75 C 1096.75 437.07, 1092.23 439.75, 1083.64 444.75 C 1075.04 449.74, 1069.95 452.72, 1060.86 457.72 C 1051.78 462.72, 1046.76 465.56, 1038.21 469.75 C 1029.67 473.94, 1025.25 476.04, 1018.15 478.66 C 1011.06 481.29, 1007.44 482.12, 1002.73 482.89 C 998.02 483.66, 996.39 482.85, 994.62 482.51 C 992.84 482.17, 993.84 482.76, 993.87 481.19 C 993.91 479.62, 993.69 478.15, 994.78 474.67 C 995.86 471.19, 997.20 468.36, 999.30 463.81 C 1001.41 459.26, 1003.36 456.53, 1005.31 451.91 C 1007.25 447.30, 1009.04 444.80, 1009.03 440.73 C 1009.03 436.66, 1007.99 433.76, 1005.29 431.57 C 1002.59 429.38, 1000.23 429.05, 995.54 429.80 C 990.85 430.55, 988.07 432.28, 981.84 435.32 C 975.62 438.35, 971.80 440.60, 964.40 444.96 C 956.99 449.33, 952.53 452.30, 944.84 457.15 C 937.14 461.99, 932.79 464.93, 925.94 469.19 C 919.08 473.45, 915.50 475.69, 910.56 478.45 C 905.62 481.21, 903.00 481.27, 901.23 482.96 C 899.47 484.66, 900.82 486.72, 901.73 486.90 C 902.64 487.09, 903.84 486.59, 905.80 483.90 C 907.77 481.20, 908.61 478.18, 911.55 473.44 C 914.48 468.69, 916.85 465.49, 920.47 460.17 C 924.09 454.85, 926.56 451.74, 929.64 446.84 C 932.71 441.93, 934.98 439.68, 935.86 435.62 C 936.75 431.57, 936.11 428.82, 934.05 426.54 C 932.00 424.26, 929.52 423.33, 925.58 424.22 C 921.65 425.11, 919.56 427.55, 914.40 430.99 C 909.23 434.43, 906.16 436.77, 899.75 441.42 C 893.34 446.07, 889.63 448.94, 882.34 454.23 C 875.06 459.53, 870.88 462.59, 863.30 467.89 C 855.72 473.19, 851.67 476.12, 844.43 480.75 C 837.19 485.37, 833.45 487.72, 827.11 491.02 C 820.78 494.31, 817.49 495.62, 812.75 497.24 C 808.01 498.87, 805.84 498.66, 803.41 499.12 C 800.98 499.58, 801.14 500.19, 800.60 499.55 C 800.06 498.91, 800.02 498.71, 800.71 495.93 C 801.40 493.16, 801.75 490.53, 804.07 485.67 C 806.38 480.82, 808.43 477.48, 812.29 471.66 C 816.16 465.84, 819.01 462.33, 823.39 456.58 C 827.78 450.84, 830.62 447.83, 834.23 442.93 C 837.84 438.03, 840.29 436.19, 841.45 432.09 C 842.62 427.99, 842.13 425.10, 840.05 422.44 C 837.96 419.78, 835.41 418.95, 831.02 418.79 C 826.64 418.64, 823.80 420.30, 818.12 421.66 C 812.44 423.03, 809.05 424.11, 802.61 425.64 C 796.17 427.17, 792.47 428.12, 785.93 429.31 C 779.39 430.49, 775.82 431.10, 769.91 431.55 C 764.01 432.01, 761.06 432.06, 756.41 431.60 C 751.76 431.13, 749.92 430.04, 746.67 429.23 C 743.43 428.41, 742.65 427.46, 740.18 427.51 C 737.71 427.56, 736.52 428.51, 734.34 429.48 C 732.16 430.45, 731.04 430.74, 729.27 432.36 C 727.50 433.98, 727.00 434.58, 725.47 437.57 C 723.95 440.56, 723.95 442.76, 721.65 447.30 C 719.36 451.83, 717.82 454.69, 713.99 460.26 C 710.16 465.82, 707.64 469.13, 702.48 475.11 C 697.32 481.08, 694.15 484.56, 688.20 490.12 C 682.26 495.68, 678.77 498.60, 672.78 502.91 C 666.78 507.22, 663.48 509.14, 658.22 511.67 C 652.95 514.20, 650.20 514.84, 646.47 515.55 C 642.74 516.26, 641.54 515.83, 639.55 515.21 C 637.56 514.58, 637.33 514.66, 636.53 512.42 C 635.73 510.19, 634.99 508.50, 635.55 504.04 C 636.10 499.58, 636.90 496.28, 639.31 490.13 C 641.72 483.98, 643.72 480.14, 647.61 473.31 C 651.50 466.47, 654.30 462.48, 658.77 455.94 C 663.25 449.41, 666.17 445.88, 669.99 440.62 C 673.81 435.37, 676.46 433.59, 677.86 429.68 C 679.27 425.77, 678.78 423.36, 677.00 421.08 C 675.22 418.80, 672.68 417.76, 668.96 418.28 C 665.23 418.81, 663.18 421.37, 658.39 423.69 C 653.61 426.01, 650.72 427.51, 645.04 429.87 C 639.35 432.23, 636.03 433.55, 629.97 435.49 C 623.91 437.43, 620.61 438.37, 614.74 439.57 C 608.88 440.78, 605.89 441.15, 600.64 441.50 C 595.39 441.84, 592.91 441.65, 588.47 441.30 C 584.03 440.94, 582.22 440.26, 578.46 439.71 C 574.70 439.15, 573.14 438.37, 569.66 438.52 C 566.18 438.68, 564.23 438.91, 561.07 440.49 C 557.91 442.06, 556.57 443.32, 553.86 446.39 C 551.15 449.45, 550.23 451.36, 547.53 455.79 C 544.82 460.23, 543.40 462.90, 540.34 468.56 C 537.28 474.23, 535.53 477.75, 532.22 484.13 C 528.92 490.50, 526.92 494.32, 523.82 500.44 C 520.71 506.55, 518.80 509.83, 516.71 514.69 C 514.63 519.55, 512.91 521.71, 513.39 524.72 C 513.87 527.73, 516.64 529.67, 519.13 529.75 C 521.62 529.82, 523.05 528.52, 525.85 525.11 C 528.64 521.70, 529.78 518.36, 533.10 512.71 C 536.42 507.06, 538.69 503.32, 542.43 496.85 C 546.16 490.37, 548.44 486.54, 551.76 480.34 C 555.09 474.14, 556.94 471.15, 559.06 465.85 C 561.17 460.55, 562.70 458.06, 562.33 453.84 C 561.97 449.63, 560.24 446.90, 557.23 444.76 C 554.21 442.62, 551.78 442.90, 547.25 443.14 C 542.73 443.37, 540.46 444.43, 534.61 445.94 C 528.76 447.46, 525.41 448.50, 518.00 450.69 C 510.59 452.88, 506.36 454.21, 497.58 456.91 C 488.79 459.60, 483.91 461.14, 474.08 464.16 C 464.25 467.18, 458.88 468.78, 448.44 472.01 C 438.00 475.23, 432.39 476.91, 421.87 480.28 C 411.35 483.65, 405.80 485.36, 395.84 488.84 C 385.88 492.32, 380.83 494.12, 372.06 497.68 C 363.30 501.25, 359.08 503.02, 352.00 506.67 C 344.92 510.32, 341.72 512.08, 336.65 515.92 C 331.58 519.75, 329.39 521.61, 326.65 525.86 C 323.91 530.11, 322.93 532.73, 322.95 537.15 C 322.96 541.57, 324.12 544.21, 326.73 547.94 C 329.34 551.66, 331.57 553.19, 335.99 555.77 C 340.42 558.36, 343.22 559.38, 348.86 560.85 C 354.50 562.32, 357.74 562.83, 364.19 563.14 C 370.64 563.45, 374.27 563.44, 381.12 562.41 C 387.97 561.38, 391.65 560.52, 398.44 557.98 C 405.23 555.44, 408.71 553.77, 415.06 549.70 C 421.41 545.62, 424.52 543.18, 430.21 537.60 C 435.90 532.02, 438.56 528.75, 443.53 521.79 C 448.49 514.84, 450.84 510.92, 455.04 502.84 C 459.23 494.76, 461.15 490.32, 464.50 481.40 C 467.85 472.48, 469.34 467.63, 471.78 458.23 C 474.23 448.83, 475.24 443.83, 476.72 434.41 C 478.21 424.98, 478.69 420.13, 479.21 411.09 C 479.73 402.05, 479.71 397.50, 479.32 389.22 C 478.94 380.93, 478.46 376.87, 477.28 369.65 C 476.10 362.43, 475.33 358.99, 473.42 353.09 C 471.50 347.20, 470.49 344.48, 467.72 340.17 C 464.95 335.87, 463.37 333.84, 459.56 331.58 C 455.75 329.32, 453.23 328.75, 448.69 328.89 C 444.15 329.03, 441.81 330.02, 436.86 332.26 C 431.90 334.51, 429.48 336.29, 423.93 340.12 C 418.38 343.95, 415.32 346.42, 409.08 351.41 C 402.85 356.40, 399.39 359.38, 392.76 365.07 C 386.13 370.76, 382.56 373.98, 375.92 379.86 C 369.28 385.75, 365.76 388.79, 359.56 394.49 C 353.35 400.20, 349.96 403.46, 344.91 408.37 C 339.85 413.28, 337.42 415.43, 334.27 419.05 C 331.12 422.67, 329.29 424.22, 329.17 426.47 C 329.06 428.73, 331.53 430.76, 333.70 430.31" style="stroke: blue; fill: blue;"/><path d="M 1516.50,350.88 C 1516.77 348.63, 1516.19 346.64, 1514.10 344.60 C 1512.01 342.57, 1509.93 341.74, 1506.05 340.71 C 1502.17 339.69, 1499.50 339.21, 1494.69 339.48 C 1489.89 339.75, 1487.46 340.28, 1482.02 342.05 C 1476.59 343.83, 1473.74 344.92, 1467.53 348.35 C 1461.32 351.79, 1457.90 353.85, 1450.96 359.21 C 1444.01 364.57, 1440.08 367.94, 1432.81 375.14 C 1425.55 382.34, 1421.46 386.73, 1414.64 395.23 C 1407.82 403.73, 1404.19 408.64, 1398.72 417.62 C 1393.25 426.60, 1390.71 431.60, 1387.29 440.13 C 1383.87 448.66, 1382.59 452.98, 1381.62 460.28 C 1380.64 467.57, 1380.64 471.07, 1382.42 476.60 C 1384.19 482.13, 1386.09 484.93, 1390.50 487.91 C 1394.91 490.89, 1398.24 491.55, 1404.48 491.49 C 1410.72 491.44, 1414.33 490.46, 1421.69 487.64 C 1429.05 484.82, 1433.18 482.67, 1441.28 477.39 C 1449.38 472.11, 1453.87 468.60, 1462.20 461.24 C 1470.53 453.88, 1474.99 449.43, 1482.91 440.58 C 1490.83 431.73, 1494.89 426.58, 1501.80 417.00 C 1508.71 407.43, 1512.05 402.15, 1517.45 392.69 C 1522.85 383.23, 1525.21 378.32, 1528.82 369.71 C 1532.42 361.10, 1533.74 356.95, 1535.48 349.63 C 1537.22 342.32, 1537.56 339.03, 1537.52 333.14 C 1537.48 327.26, 1537.00 324.65, 1535.28 320.22 C 1533.57 315.78, 1532.14 313.71, 1528.94 310.98 C 1525.75 308.26, 1522.98 306.77, 1519.31 306.59 C 1515.64 306.41, 1512.10 308.02, 1510.58 310.08 C 1509.07 312.14, 1510.20 315.36, 1511.73 316.91 C 1513.26 318.46, 1515.96 317.44, 1518.23 317.83 C 1520.50 318.22, 1521.09 317.72, 1523.08 318.85 C 1525.06 319.99, 1526.49 320.57, 1528.15 323.49 C 1529.80 326.41, 1530.86 328.42, 1531.35 333.44 C 1531.84 338.47, 1531.90 341.66, 1530.60 348.60 C 1529.31 355.53, 1528.19 359.68, 1524.89 368.12 C 1521.60 376.56, 1519.34 381.46, 1514.13 390.81 C 1508.91 400.16, 1505.62 405.41, 1498.82 414.86 C 1492.02 424.31, 1487.97 429.40, 1480.10 438.05 C 1472.24 446.70, 1467.76 451.06, 1459.48 458.11 C 1451.20 465.16, 1446.66 468.47, 1438.71 473.29 C 1430.75 478.11, 1426.58 479.89, 1419.73 482.21 C 1412.87 484.53, 1409.55 484.89, 1404.44 484.90 C 1399.32 484.92, 1397.42 484.35, 1394.17 482.31 C 1390.91 480.27, 1389.64 478.98, 1388.15 474.69 C 1386.66 470.41, 1386.07 467.47, 1386.73 460.88 C 1387.39 454.29, 1388.35 449.97, 1391.46 441.75 C 1394.57 433.53, 1396.99 428.55, 1402.27 419.78 C 1407.56 411.00, 1411.15 406.14, 1417.89 397.86 C 1424.64 389.59, 1428.75 385.29, 1435.99 378.41 C 1443.23 371.53, 1447.22 368.33, 1454.10 363.47 C 1460.99 358.61, 1464.44 356.82, 1470.43 354.11 C 1476.41 351.40, 1479.27 350.73, 1484.03 349.90 C 1488.79 349.07, 1490.67 349.30, 1494.21 349.95 C 1497.75 350.61, 1499.11 351.94, 1501.71 353.17 C 1504.31 354.41, 1505.01 355.60, 1507.22 356.13 C 1509.43 356.67, 1510.91 356.89, 1512.77 355.84 C 1514.62 354.79, 1516.24 353.13, 1516.50 350.88" style="stroke: blue; fill: blue;"/><path d="M 1547.39,413.80 C 1549.56 414.74, 1551.54 414.49, 1554.31 413.70 C 1557.09 412.91, 1559.47 411.72, 1561.27 409.87 C 1563.08 408.01, 1563.49 405.81, 1563.34 404.41 C 1563.18 403.02, 1561.59 401.63, 1560.51 402.88 C 1559.43 404.13, 1559.55 406.47, 1557.94 410.68 C 1556.32 414.88, 1554.65 418.37, 1552.45 423.92 C 1550.24 429.47, 1548.51 432.90, 1546.90 438.45 C 1545.29 444.00, 1544.06 446.87, 1544.41 451.67 C 1544.76 456.47, 1545.55 459.62, 1548.65 462.47 C 1551.76 465.33, 1554.83 465.93, 1559.93 465.94 C 1565.02 465.96, 1567.86 464.90, 1574.13 462.53 C 1580.41 460.16, 1584.00 458.21, 1591.29 454.11 C 1598.58 450.01, 1602.81 447.18, 1610.59 442.04 C 1618.36 436.90, 1622.82 433.52, 1630.15 428.41 C 1637.48 423.29, 1641.86 420.08, 1647.26 416.47 C 1652.65 412.86, 1655.66 412.12, 1657.12 410.36 C 1658.57 408.60, 1656.18 406.69, 1654.54 407.68 C 1652.90 408.67, 1651.57 410.91, 1648.93 415.29 C 1646.28 419.68, 1643.83 423.52, 1641.30 429.58 C 1638.78 435.65, 1637.09 439.52, 1636.28 445.62 C 1635.47 451.73, 1635.24 455.12, 1637.26 460.11 C 1639.28 465.10, 1641.42 467.54, 1646.38 470.57 C 1651.33 473.60, 1654.85 474.42, 1662.03 475.26 C 1669.22 476.10, 1673.59 475.84, 1682.32 474.78 C 1691.05 473.72, 1696.92 472.15, 1705.67 469.97 C 1714.42 467.79, 1719.26 466.10, 1726.08 463.89 C 1732.89 461.68, 1737.37 460.89, 1739.74 458.92 C 1742.12 456.95, 1741.02 454.04, 1737.97 454.04 C 1734.92 454.04, 1731.21 456.81, 1724.49 458.94 C 1717.77 461.06, 1712.93 462.62, 1704.37 464.67 C 1695.81 466.72, 1689.99 468.30, 1681.68 469.19 C 1673.37 470.07, 1669.17 469.99, 1662.82 469.10 C 1656.48 468.20, 1653.72 467.03, 1649.96 464.72 C 1646.20 462.42, 1645.22 461.12, 1644.02 457.56 C 1642.81 454.01, 1642.81 451.82, 1643.92 446.96 C 1645.03 442.09, 1646.95 438.73, 1649.55 433.25 C 1652.15 427.77, 1654.72 424.33, 1656.94 419.55 C 1659.16 414.76, 1661.17 412.44, 1660.63 409.32 C 1660.10 406.20, 1657.66 403.56, 1654.26 403.97 C 1650.87 404.37, 1649.08 407.32, 1643.65 411.36 C 1638.22 415.40, 1634.29 418.90, 1627.11 424.16 C 1619.94 429.43, 1615.49 432.76, 1607.77 437.71 C 1600.05 442.66, 1595.72 445.30, 1588.53 448.91 C 1581.33 452.51, 1577.54 454.01, 1571.82 455.74 C 1566.09 457.46, 1563.33 457.50, 1559.91 457.53 C 1556.48 457.56, 1556.04 457.12, 1554.69 455.89 C 1553.34 454.66, 1553.07 454.36, 1553.15 451.37 C 1553.24 448.39, 1553.55 445.73, 1555.11 440.97 C 1556.67 436.21, 1558.49 432.88, 1560.95 427.58 C 1563.41 422.28, 1565.42 419.26, 1567.41 414.48 C 1569.41 409.70, 1571.64 407.42, 1570.94 403.66 C 1570.23 399.90, 1567.41 397.30, 1563.89 395.69 C 1560.37 394.08, 1556.99 394.41, 1553.32 395.60 C 1549.65 396.80, 1547.52 398.98, 1545.54 401.66 C 1543.56 404.34, 1543.06 406.57, 1543.43 409.00 C 1543.80 411.42, 1545.21 412.86, 1547.39 413.80" style="stroke: blue; fill: blue;"/></svg>